<svg xmlns="http://www.w3.org/2000/svg" viewBox="0 0 910 196" font-family="Roboto, Arial, Helvetica, sans-serif">
<defs>
<symbol id="logo-color" viewBox="0 0 533.33 166.23">
<path fill="#DA291C" d="M31.26,78.43H0v-28.16h94.18v28.16h-31.27v87.8h-31.65v-87.8Z"/>
<path fill="#DA291C" d="M107.55,50.27h91.86v27.33h-60.53v17.56h54.82v25.35h-54.82v18.39h61.35v27.33h-92.67V50.27Z"/>
<path fill="#DA291C" d="M215.85,50.27h58.57c14.36,0,24.47,3.64,31.16,10.43,4.57,4.64,7.34,10.77,7.34,19.05,0,13.42-7.51,21.37-17.62,25.84,13.86,4.63,22.68,12.59,22.68,28.65,0,19.88-15.99,31.97-43.24,31.97h-58.9V50.27ZM266.59,96.49c9.63,0,15.01-3.31,15.01-10.43,0-6.3-4.89-9.94-14.35-9.94h-20.56v20.37h19.9ZM271.16,140.39c9.63,0,15.17-3.81,15.17-10.93,0-6.3-4.9-10.43-15.5-10.43h-24.15v21.36h24.47Z"/>
<path fill="#DA291C" d="M533.33,0v24.68h-49.51V0h49.51Z"/>
<path fill="#DA291C" d="M533.33,50.28h-24.31V0h24.31v50.28Z"/>
<path fill="#898D8D" d="M328.56,50.27h31.81v115.96h-31.81V50.27Z"/>
<path fill="#898D8D" d="M375.96,50.27h29.53l46.99,61.29v-61.29h31.33v115.96h-27.74l-48.78-63.61v63.61h-31.33V50.27Z"/>
</symbol>
<symbol id="logo-white" viewBox="0 0 533.33 166.23">
<path fill="#FFFFFF" d="M31.26,78.43H0v-28.16h94.18v28.16h-31.27v87.8h-31.65v-87.8Z"/>
<path fill="#FFFFFF" d="M107.55,50.27h91.86v27.33h-60.53v17.56h54.82v25.35h-54.82v18.39h61.35v27.33h-92.67V50.27Z"/>
<path fill="#FFFFFF" d="M215.85,50.27h58.57c14.36,0,24.47,3.64,31.16,10.43,4.57,4.64,7.34,10.77,7.34,19.05,0,13.42-7.51,21.37-17.62,25.84,13.86,4.63,22.68,12.59,22.68,28.65,0,19.88-15.99,31.97-43.24,31.97h-58.9V50.27ZM266.59,96.49c9.63,0,15.01-3.31,15.01-10.43,0-6.3-4.89-9.94-14.35-9.94h-20.56v20.37h19.9ZM271.16,140.39c9.63,0,15.17-3.81,15.17-10.93,0-6.3-4.9-10.43-15.5-10.43h-24.15v21.36h24.47Z"/>
<path fill="#FFFFFF" d="M533.33,0v24.68h-49.51V0h49.51Z"/>
<path fill="#FFFFFF" d="M533.33,50.28h-24.31V0h24.31v50.28Z"/>
<path fill="#FFFFFF" d="M328.56,50.27h31.81v115.96h-31.81V50.27Z"/>
<path fill="#FFFFFF" d="M375.96,50.27h29.53l46.99,61.29v-61.29h31.33v115.96h-27.74l-48.78-63.61v63.61h-31.33V50.27Z"/>
</symbol>
</defs>
<rect x="10" y="10" width="286" height="150" rx="6" fill="#FFFFFF" stroke="#E5E5E5"/>
<use href="#logo-color" transform="translate(58,55) scale(0.356)"/>
<text x="153" y="184" font-size="12" fill="#1A1A1A" text-anchor="middle">On white</text>
<rect x="312" y="10" width="286" height="150" rx="6" fill="#DA291C" stroke="#DA291C"/>
<use href="#logo-white" transform="translate(360,55) scale(0.356)"/>
<text x="455" y="184" font-size="12" fill="#1A1A1A" text-anchor="middle">On red</text>
<rect x="614" y="10" width="286" height="150" rx="6" fill="#1A1A1A" stroke="#1A1A1A"/>
<use href="#logo-white" transform="translate(662,55) scale(0.356)"/>
<text x="757" y="184" font-size="12" fill="#1A1A1A" text-anchor="middle">On black</text>
</svg>
