<svg xmlns="http://www.w3.org/2000/svg" viewBox="0 0 1528 154" width="1528" height="154">
  <rect x="0" y="0" width="120" height="120" fill="#DA291C" />
  <text x="10" y="106" font-family="Arial, Helvetica, sans-serif" font-size="13" fill="#FFFFFF">brand</text>
  <text x="10" y="140" font-family="Arial, Helvetica, sans-serif" font-size="12" fill="#666666">#DA291C</text>
  <rect x="128" y="0" width="120" height="120" fill="#898D8D" />
  <text x="138" y="106" font-family="Arial, Helvetica, sans-serif" font-size="13" fill="#FFFFFF">grey</text>
  <text x="138" y="140" font-family="Arial, Helvetica, sans-serif" font-size="12" fill="#666666">#898D8D</text>
  <rect x="256" y="0" width="120" height="120" fill="#1A1A1A" />
  <text x="266" y="106" font-family="Arial, Helvetica, sans-serif" font-size="13" fill="#FFFFFF">ink</text>
  <text x="266" y="140" font-family="Arial, Helvetica, sans-serif" font-size="12" fill="#666666">#1A1A1A</text>
  <rect x="384" y="0" width="120" height="120" fill="#FFFFFF" />
  <text x="394" y="106" font-family="Arial, Helvetica, sans-serif" font-size="13" fill="#000000">topbar</text>
  <text x="394" y="140" font-family="Arial, Helvetica, sans-serif" font-size="12" fill="#666666">#FFFFFF</text>
  <rect x="512" y="0" width="120" height="120" fill="#B02954" />
  <text x="522" y="106" font-family="Arial, Helvetica, sans-serif" font-size="13" fill="#FFFFFF">maroon</text>
  <text x="522" y="140" font-family="Arial, Helvetica, sans-serif" font-size="12" fill="#666666">#B02954</text>
  <rect x="640" y="0" width="120" height="120" fill="#A43F39" />
  <text x="650" y="106" font-family="Arial, Helvetica, sans-serif" font-size="13" fill="#FFFFFF">brick</text>
  <text x="650" y="140" font-family="Arial, Helvetica, sans-serif" font-size="12" fill="#666666">#A43F39</text>
  <rect x="768" y="0" width="120" height="120" fill="#EB807A" />
  <text x="778" y="106" font-family="Arial, Helvetica, sans-serif" font-size="13" fill="#000000">salmon</text>
  <text x="778" y="140" font-family="Arial, Helvetica, sans-serif" font-size="12" fill="#666666">#EB807A</text>
  <rect x="896" y="0" width="120" height="120" fill="#F38B4C" />
  <text x="906" y="106" font-family="Arial, Helvetica, sans-serif" font-size="13" fill="#000000">orange</text>
  <text x="906" y="140" font-family="Arial, Helvetica, sans-serif" font-size="12" fill="#666666">#F38B4C</text>
  <rect x="1024" y="0" width="120" height="120" fill="#FBD551" />
  <text x="1034" y="106" font-family="Arial, Helvetica, sans-serif" font-size="13" fill="#000000">yellow</text>
  <text x="1034" y="140" font-family="Arial, Helvetica, sans-serif" font-size="12" fill="#666666">#FBD551</text>
  <rect x="1152" y="0" width="120" height="120" fill="#69B7C2" />
  <text x="1162" y="106" font-family="Arial, Helvetica, sans-serif" font-size="13" fill="#000000">teal</text>
  <text x="1162" y="140" font-family="Arial, Helvetica, sans-serif" font-size="12" fill="#666666">#69B7C2</text>
  <rect x="1280" y="0" width="120" height="120" fill="#B3B4B6" />
  <text x="1290" y="106" font-family="Arial, Helvetica, sans-serif" font-size="13" fill="#000000">grey-light</text>
  <text x="1290" y="140" font-family="Arial, Helvetica, sans-serif" font-size="12" fill="#666666">#B3B4B6</text>
  <rect x="1408" y="0" width="120" height="120" fill="#CDCDCE" />
  <text x="1418" y="106" font-family="Arial, Helvetica, sans-serif" font-size="13" fill="#000000">grey-lighter</text>
  <text x="1418" y="140" font-family="Arial, Helvetica, sans-serif" font-size="12" fill="#666666">#CDCDCE</text>
</svg>
