<svg xmlns="http://www.w3.org/2000/svg" viewBox="0 0 2168 154" width="2168" height="154">
  <rect x="0" y="0" width="120" height="120" fill="#DA291C" />
  <text x="10" y="106" font-family="Arial, Helvetica, sans-serif" font-size="13" fill="#FFFFFF">brand</text>
  <text x="10" y="140" font-family="Arial, Helvetica, sans-serif" font-size="12" fill="#666666">#DA291C</text>
  <rect x="128" y="0" width="120" height="120" fill="#B82217" />
  <text x="138" y="106" font-family="Arial, Helvetica, sans-serif" font-size="13" fill="#FFFFFF">brand-dark</text>
  <text x="138" y="140" font-family="Arial, Helvetica, sans-serif" font-size="12" fill="#666666">#B82217</text>
  <rect x="256" y="0" width="120" height="120" fill="#EA6359" />
  <text x="266" y="106" font-family="Arial, Helvetica, sans-serif" font-size="13" fill="#FFFFFF">brand-on-dark</text>
  <text x="266" y="140" font-family="Arial, Helvetica, sans-serif" font-size="12" fill="#666666">#EA6359</text>
  <rect x="384" y="0" width="120" height="120" fill="#C7251A" />
  <text x="394" y="106" font-family="Arial, Helvetica, sans-serif" font-size="13" fill="#FFFFFF">brand-on-light</text>
  <text x="394" y="140" font-family="Arial, Helvetica, sans-serif" font-size="12" fill="#666666">#C7251A</text>
  <rect x="512" y="0" width="120" height="120" fill="#242424" />
  <text x="522" y="106" font-family="Arial, Helvetica, sans-serif" font-size="13" fill="#FFFFFF">charcoal</text>
  <text x="522" y="140" font-family="Arial, Helvetica, sans-serif" font-size="12" fill="#666666">#242424</text>
  <rect x="640" y="0" width="120" height="120" fill="#292929" />
  <text x="650" y="106" font-family="Arial, Helvetica, sans-serif" font-size="13" fill="#FFFFFF">ink</text>
  <text x="650" y="140" font-family="Arial, Helvetica, sans-serif" font-size="12" fill="#666666">#292929</text>
  <rect x="768" y="0" width="120" height="120" fill="#666666" />
  <text x="778" y="106" font-family="Arial, Helvetica, sans-serif" font-size="13" fill="#FFFFFF">muted</text>
  <text x="778" y="140" font-family="Arial, Helvetica, sans-serif" font-size="12" fill="#666666">#666666</text>
  <rect x="896" y="0" width="120" height="120" fill="#F9F9F9" />
  <text x="906" y="106" font-family="Arial, Helvetica, sans-serif" font-size="13" fill="#000000">topbar</text>
  <text x="906" y="140" font-family="Arial, Helvetica, sans-serif" font-size="12" fill="#666666">#F9F9F9</text>
  <rect x="1024" y="0" width="120" height="120" fill="#C1C1C1" />
  <text x="1034" y="106" font-family="Arial, Helvetica, sans-serif" font-size="13" fill="#000000">subtle</text>
  <text x="1034" y="140" font-family="Arial, Helvetica, sans-serif" font-size="12" fill="#666666">#C1C1C1</text>
  <rect x="1152" y="0" width="120" height="120" fill="#ECECEC" />
  <text x="1162" y="106" font-family="Arial, Helvetica, sans-serif" font-size="13" fill="#000000">rule</text>
  <text x="1162" y="140" font-family="Arial, Helvetica, sans-serif" font-size="12" fill="#666666">#ECECEC</text>
  <rect x="1280" y="0" width="120" height="120" fill="#A43F39" />
  <text x="1290" y="106" font-family="Arial, Helvetica, sans-serif" font-size="13" fill="#FFFFFF">brick</text>
  <text x="1290" y="140" font-family="Arial, Helvetica, sans-serif" font-size="12" fill="#666666">#A43F39</text>
  <rect x="1408" y="0" width="120" height="120" fill="#D07C77" />
  <text x="1418" y="106" font-family="Arial, Helvetica, sans-serif" font-size="13" fill="#FFFFFF">brick-on-dark</text>
  <text x="1418" y="140" font-family="Arial, Helvetica, sans-serif" font-size="12" fill="#666666">#D07C77</text>
  <rect x="1536" y="0" width="120" height="120" fill="#8A5300" />
  <text x="1546" y="106" font-family="Arial, Helvetica, sans-serif" font-size="13" fill="#FFFFFF">warning-on-light</text>
  <text x="1546" y="140" font-family="Arial, Helvetica, sans-serif" font-size="12" fill="#666666">#8A5300</text>
  <rect x="1664" y="0" width="120" height="120" fill="#F0B429" />
  <text x="1674" y="106" font-family="Arial, Helvetica, sans-serif" font-size="13" fill="#000000">warning-on-dark</text>
  <text x="1674" y="140" font-family="Arial, Helvetica, sans-serif" font-size="12" fill="#666666">#F0B429</text>
  <rect x="1792" y="0" width="120" height="120" fill="#1F6F43" />
  <text x="1802" y="106" font-family="Arial, Helvetica, sans-serif" font-size="13" fill="#FFFFFF">success-on-light</text>
  <text x="1802" y="140" font-family="Arial, Helvetica, sans-serif" font-size="12" fill="#666666">#1F6F43</text>
  <rect x="1920" y="0" width="120" height="120" fill="#5FCF8E" />
  <text x="1930" y="106" font-family="Arial, Helvetica, sans-serif" font-size="13" fill="#000000">success-on-dark</text>
  <text x="1930" y="140" font-family="Arial, Helvetica, sans-serif" font-size="12" fill="#666666">#5FCF8E</text>
  <rect x="2048" y="0" width="120" height="120" fill="#FCFBF8" />
  <text x="2058" y="106" font-family="Arial, Helvetica, sans-serif" font-size="13" fill="#000000">paper</text>
  <text x="2058" y="140" font-family="Arial, Helvetica, sans-serif" font-size="12" fill="#666666">#FCFBF8</text>
</svg>
